<?xml version="1.0" encoding="utf-8"?>
<!-- Generator: Adobe Illustrator 24.0.1, SVG Export Plug-In . SVG Version: 6.00 Build 0)  -->
<svg version="1.1" id="ico" xmlns="http://www.w3.org/2000/svg" xmlns:xlink="http://www.w3.org/1999/xlink" x="0px" y="0px"
	 width="50px" height="50px" viewBox="0 0 50 50" style="enable-background:new 0 0 50 50;" xml:space="preserve">
<path d="M18.363,30.738c0.405-1.605-0.57-3.241-2.175-3.646c-1.604-0.409-3.24,0.569-3.646,2.175
	c-0.405,1.605,0.57,3.241,2.175,3.646c0.246,0.062,0.492,0.092,0.735,0.092C16.794,33.005,18.02,32.098,18.363,30.738z
	 M15.035,31.653c-0.91-0.23-1.463-1.158-1.233-2.068c0.195-0.771,0.89-1.285,1.65-1.285c0.138,0,0.277,0.017,0.417,0.052
	c0.91,0.23,1.463,1.158,1.233,2.068S15.946,31.885,15.035,31.653z M36.447,15.474c0.689-0.411,1.176-1.065,1.373-1.843
	c0.405-1.604-0.571-3.24-2.176-3.646c-0.778-0.198-1.584-0.079-2.273,0.332s-1.176,1.065-1.373,1.843s-0.079,1.584,0.333,2.273
	c0.411,0.688,1.065,1.176,1.843,1.372c0.246,0.062,0.494,0.093,0.741,0.093C35.449,15.898,35.976,15.755,36.447,15.474z
	 M34.492,14.546c-0.441-0.111-0.812-0.388-1.045-0.778s-0.3-0.849-0.188-1.289c0.111-0.44,0.387-0.812,0.778-1.045
	c0.267-0.159,0.565-0.241,0.869-0.241c0.14,0,0.281,0.018,0.42,0.053c0.91,0.23,1.463,1.157,1.233,2.067
	c-0.111,0.44-0.388,0.812-0.778,1.045S34.934,14.658,34.492,14.546z M34.909,7.732c-3.093,0-5.608,2.517-5.608,5.609
	c0,2.637,3.935,9.828,4.884,11.525c-0.087,0.204-0.173,0.408-0.265,0.609c-0.149,0.326-0.006,0.712,0.32,0.861
	c0.087,0.04,0.18,0.06,0.27,0.06c0.247,0,0.482-0.141,0.591-0.38c0.136-0.296,0.265-0.595,0.39-0.897
	c0.571-1.009,5.026-8.972,5.026-11.779C40.518,10.249,38.002,7.732,34.909,7.732z M34.909,9.033c2.375,0,4.309,1.933,4.309,4.309
	c0,1.854-2.732,7.254-4.309,10.148c-1.577-2.895-4.309-8.294-4.309-10.148C30.601,10.966,32.534,9.033,34.909,9.033z M32.002,30.102
	c0.287,0.216,0.345,0.623,0.129,0.91c-0.388,0.517-0.799,1.024-1.221,1.508c-0.128,0.147-0.309,0.224-0.49,0.224
	c-0.151,0-0.303-0.053-0.427-0.16c-0.271-0.236-0.299-0.646-0.062-0.917c0.401-0.461,0.792-0.943,1.162-1.436
	C31.306,29.943,31.714,29.885,32.002,30.102z M34.232,27.753c-0.308,0.562-0.642,1.123-0.992,1.667
	c-0.124,0.193-0.333,0.299-0.547,0.299c-0.121,0-0.243-0.034-0.351-0.104c-0.302-0.194-0.389-0.597-0.195-0.898
	c0.333-0.519,0.651-1.053,0.944-1.589c0.173-0.314,0.568-0.429,0.882-0.258C34.289,27.043,34.405,27.438,34.232,27.753z
	 M23.637,37.665c0.169,0.316,0.05,0.71-0.267,0.88l-1.686,0.881c-0.096,0.051-0.199,0.074-0.3,0.074
	c-0.234,0-0.461-0.128-0.577-0.351c-0.166-0.318-0.042-0.711,0.276-0.876l1.673-0.875C23.073,37.232,23.468,37.349,23.637,37.665z
	 M29.586,33.017c0.253,0.255,0.252,0.666-0.003,0.919c-0.454,0.451-0.933,0.895-1.423,1.316c-0.123,0.106-0.274,0.158-0.424,0.158
	c-0.183,0-0.364-0.077-0.493-0.227c-0.234-0.271-0.204-0.682,0.068-0.916c0.467-0.402,0.923-0.824,1.356-1.254
	C28.921,32.76,29.333,32.763,29.586,33.017z M20.281,39.424c0.166,0.318,0.042,0.711-0.277,0.876l-1.68,0.874
	c-0.096,0.051-0.198,0.074-0.299,0.074c-0.235,0-0.461-0.128-0.577-0.351c-0.166-0.318-0.042-0.711,0.277-0.876l1.68-0.874
	C19.722,38.979,20.116,39.105,20.281,39.424z M26.778,35.556c0.214,0.288,0.153,0.695-0.135,0.909
	c-0.513,0.38-1.051,0.749-1.598,1.098c-0.108,0.069-0.229,0.103-0.349,0.103c-0.215,0-0.425-0.106-0.549-0.301
	c-0.193-0.304-0.104-0.705,0.199-0.897c0.522-0.333,1.034-0.685,1.522-1.047C26.158,35.208,26.565,35.267,26.778,35.556z
	 M16.733,40.964c1.419-2.614,4.327-8.246,4.327-10.515c0-3.092-2.516-5.608-5.608-5.608s-5.608,2.517-5.608,5.608
	c0,2.829,4.527,10.898,5.043,11.81c0.046,0.081,0.117,0.139,0.19,0.192c0.018,0.013,0.027,0.036,0.046,0.047
	c0.099,0.058,0.212,0.091,0.33,0.091h0h0c0.101,0,0.204-0.023,0.3-0.074l0.887-0.462c0.318-0.165,0.442-0.558,0.276-0.876
	C16.87,41.089,16.806,41.02,16.733,40.964z M15.452,26.141c2.375,0,4.309,1.933,4.309,4.308c0,1.855-2.732,7.255-4.309,10.149
	c-1.577-2.895-4.309-8.294-4.309-10.149C11.144,28.073,13.077,26.141,15.452,26.141z"/>
</svg>
